# xmcd CD database file
#
# Track frame offsets:
#	150
#	19732
#	35331
#	52015
#	56637
#	73744
#	91526
#	104110
#	118907
#	136086
#	154880
#	174383
#
# Disc length: 2557 seconds
#
# Revision: 0
# Processed by: cddbd v1.5.2PL0 Copyright (c) Steve Scherf et al.
# Submitted via: CDex 1.70beta2
#
DISCID=a309fb0c
DTITLE=Zac Brown Band - The Foundation
DYEAR=2008
DGENRE=Country
TTITLE0=Toes
TTITLE1=Whatever It Is
TTITLE2=Where The Boat Leaves From
TTITLE3=Violin Intro To Free
TTITLE4=Free
TTITLE5=Chicken Fried
TTITLE6=Mary
TTITLE7=Different Kind Of Fine
TTITLE8=Highway 20 Ride
TTITLE9=It's Not Ok
TTITLE10=Jolene
TTITLE11=Sic 'Em On A Chicken
EXTD=YEAR: 2008
EXTT0=
EXTT1=
EXTT2=
EXTT3=
EXTT4=
EXTT5=
EXTT6=
EXTT7=
EXTT8=
EXTT9=
EXTT10=
EXTT11=
PLAYORDER=
